<?xml version="1.0" encoding="utf-8"?>
<!-- Generator: Adobe Illustrator 24.0.1, SVG Export Plug-In . SVG Version: 6.00 Build 0)  -->
<svg version="1.1" xmlns="http://www.w3.org/2000/svg" xmlns:xlink="http://www.w3.org/1999/xlink" x="0px" y="0px"
	 viewBox="0 0 300 135" style="enable-background:new 0 0 300 135;" xml:space="preserve">
<style type="text/css">
	.st0{fill:#69B464;}
	.st1{fill:#FEDC03;}
	.st2{fill:#BCBCAF;}
	.st3{fill:#FCB814;}
	.st4{fill:#FDFDFD;}
	.st5{fill:#FFFFFF;}
	.st6{display:none;}
	.st7{display:inline;}
	.st8{fill:#FCFCFC;}
</style>
<g id="Camada_1_cópia">
	<g>
		<path class="st0" d="M66.1,132.2c-1-0.5-1.2-1.4-1.2-2.5c0-5.5,0-11,0-16.5c0-2.6-0.5-3.3-3.1-3.5c-7-0.5-13.9-1.5-20.5-3.9
			c-7.1-2.6-13.5-6.2-18.4-12.1c-0.6-0.7-1.2-1.5-1.7-2.3c-0.6-0.9-1.2-1.5-2.2-1.8c-2.5-0.8-3.7-2.8-4-5.2
			c-0.3-2.2-0.2-4.5,0.4-6.7c4.3,2,6.8,7,5.6,11.4c-0.2,0.8,0.2,1.3,0.6,1.8c4.2,5.8,10,9.6,16.6,12.3c8.3,3.4,16.9,4.8,25.8,5
			c11.5,0.3,21.3-1.5,29.5-4.7c6.6-2.6,12.5-6.4,16.9-12.2c0.7-0.9,1.1-1.7,0.7-3c-0.4-1.3-0.3-2.7,0.3-4.1c0.9-2.4,3.2-5.1,5.6-6.5
			c0.7,2.6,1,5.2,0.3,7.9c-0.6,2.2-2,3.7-4.2,4.3c-0.6,0.2-1.1,0.4-1.5,0.9c-5.5,8.2-13.5,12.7-22.6,15.7c-6,2-12.2,2.8-18.4,3.2
			c-2.6,0.2-3.1,0.9-3.1,3.5c0,5.5,0,11,0,16.5c0,1-0.2,1.8-1,2.5C66.3,132.2,66.2,132.2,66.1,132.2z"/>
		<path class="st1" d="M73.8,7.2c1.2,0.5,2.4,0.9,3.4,1.8c1.8,1.6,2.2,3.6,0.9,5.7c-1.1,1.7-2.2,3.4-3.5,5.1
			c-1.5,1.9-2.9,2.1-5.1,1.1c-2.2-1-3-2.6-2.5-4.8c0.4-1.7,0.8-3.4,1.1-5.2c0.4-1.9,1.9-2.7,3.3-3.6C72.2,7.2,73,7.2,73.8,7.2z"/>
		<path class="st1" d="M60.5,7.2c2.6,0.7,3.8,2.5,4.2,5.1c0.2,1.2,0.6,2.4,0.8,3.6c0.5,2.4-0.4,4-2.7,5c-2.3,1-3.7,0.6-5.3-1.6
			c-0.9-1.3-1.8-2.6-2.7-4c-2-3-1.3-5.6,1.9-7.3c0.5-0.3,1.2-0.3,1.5-0.9C58.9,7.2,59.7,7.2,60.5,7.2z"/>
		<path class="st0" d="M8.9,93.3c2.8-1.3,5.6-2.2,8.8-1.7c0.1,0,0.2,0,0.3,0c1.7,0.4,4.1,2.1,4.1,3.1c0,1.1-2.8,2.8-4.7,2.9
			c-2.7,0-4.8-1.3-6.9-2.8c-0.5-0.4-0.9-1-1.6-1.1C8.9,93.5,8.9,93.4,8.9,93.3z"/>
		<path class="st2" d="M103.4,49.3c0.8-0.1,0.8-0.7,1-1.2c1.2-3.6,2.3-7.2,3.5-10.7c0.3-1,0.1-1.8-0.3-2.7c-2.7-5.3-5.4-10.7-8-16
			c-0.4-0.7-0.7-1.5-1-2.3c-0.6-1.8,0-3.3,1.4-4c1.6-0.8,3.5-0.3,4.5,1.3c1.8,2.7,3.5,5.5,5.2,8.3c2.3,3.8,4.7,7.7,7,11.5
			c0.5,0.8,0.8,1.7,0.7,2.7c-0.4,4.9-0.8,9.8-1.4,14.7c-0.2,1.8-1.4,3.3-2.3,4.8c-2.3,3.8-3.8,8-5.8,11.9c-0.2,0.5-0.3,0.9-0.3,1.4
			c0.1,2.8-0.2,5.5,0.3,8.3c0.1,0.9-0.1,1.4-1,1.8c-3.8,1.7-7.5,3.5-11.3,5.3c-0.8,0.4-1.2,0.4-1.4-0.7c-0.7-4.7-1.5-9.5-2.2-14.2
			c-0.7-4.6,0.2-9,1.7-13.4c1.5-4.4,2.3-8.8,2.3-13.5c0-3-0.1-6.1,0.4-9.1c0.4-2.3,1.7-3.8,3.2-3.8c1.4,0,3.4,2.3,3.5,4.2
			C103.7,39,104.9,44.1,103.4,49.3z"/>
		<path class="st2" d="M31.8,26.8c1.7,0.7,2.1,1.5,1.5,3.6c-0.7,2.6-1.4,5.1-2.2,7.6c-0.3,1-0.6,1.7,1,1.9c1.7,0.2,2.3,1.8,2.7,3.3
			c0.8,2.3,1.5,4.5,2.1,6.8c1.6,5.9,4.2,11.4,6.9,16.9c1.6,3.1,3,6.3,2.6,10c-0.3,3.6-1,7.2-1.7,10.8c-0.2,1.2-0.9,0.4-1.3,0.2
			c-3.2-1.7-6.3-3.4-9.5-5.1c-0.5-0.3-1-0.6-1.5-0.8c-0.9-0.4-1.3-1-0.9-2c0.4-1,0.1-1.8-0.5-2.6c-3-3.9-5.6-8.1-9.1-11.6
			c-1.9-1.9-2.4-4.6-3.3-7c-1-2.4-1.8-4.9-2.7-7.3c-0.6-1.5-0.6-2.9-0.2-4.4c2-6.9,4-13.9,6-20.9c0.6-2,1.7-3,3.3-3
			c1.8-0.1,2.9,1,3,2.8c0.2,2.7-0.7,5.2-1.2,7.8c-0.8,4.5-1.7,8.9-2.6,13.3c-0.1,0.6-0.1,1.1,0.2,1.6c2.2,3.4,4.4,6.8,6.6,10.2
			c0.5-0.5,0.1-0.9,0-1.3c-1.9-4.2-2.1-8.8-3-13.2c-0.2-1.1,0-2.3,0.7-3c1.6-1.5,1.7-3.5,2-5.4c0.4-2.1,0.8-4.2,1.1-6.4
			C32.3,28.7,32.3,27.7,31.8,26.8L31.8,26.8z"/>
		<path class="st3" d="M66.2,21.2c5.8,0,10.6,4.5,10.6,10.1c0,5.8-4.7,10.5-10.6,10.5c-5.8,0-10.6-4.7-10.6-10.4
			C55.6,25.7,60.3,21.2,66.2,21.2z M62.3,23.8c3.3-0.8,6.4-0.5,9,1.9c2.6,2.4,3.3,5.4,2.3,8.8c1.8-2.4,1.4-6.1-0.8-8.7
			C70.4,22.7,66.3,21.9,62.3,23.8z"/>
		<path class="st1" d="M65.1,61.7c-1.8-0.5-3.6-1-5-2.5c-1.3-1.5-1.9-3.2-1.5-5.2c0.5-2.4,1-4.7,1.6-7.1c0.7-3,2.8-4.5,6.3-4.4
			c3,0.1,4.8,1.6,5.3,4.7c0.4,2.3,0.7,4.6,1.1,6.9c0.6,4-0.9,6.3-4.9,7.3c-0.2,0.1-0.4,0.2-0.6,0.2C66.6,61.7,65.8,61.7,65.1,61.7z"
			/>
		<path class="st1" d="M89.1,47.2c0,3.5-3,7.1-6.5,7.6c-2.1,0.3-3.7-0.5-4.9-2.1c-1.6-2-3.1-4.1-4.5-6.2c-1.6-2.4-1.3-4.3,0.6-6.3
			c2.2-2.3,4.4-2.8,6.8-1.4c2.1,1.2,4.1,2.6,6.2,3.9C88.3,43.7,89,45.3,89.1,47.2z"/>
		<path class="st1" d="M43.4,47.3c-0.1-2.1,0.8-3.7,2.5-4.8c1.9-1.2,3.8-2.5,5.7-3.7c2.4-1.5,4.7-1.1,6.9,1.1
			c2.1,2.1,2.3,4.1,0.7,6.6c-1.1,1.7-2.3,3.2-3.5,4.9c-1.4,2-3.1,3.8-5.8,3.3c-2.9-0.5-4.9-2.3-6.1-4.9C43.5,49,43.4,48.1,43.4,47.3
			z"/>
		<path class="st1" d="M44.4,38.8c-3.9,0-6.2-2.7-5.9-6.3c0.3-3.6,3-7,7.5-5.5c1.6,0.5,3.3,0.7,5,1.1c2.5,0.6,3.6,2.3,3.6,5.2
			c-0.1,2.5-1.2,3.9-3.7,4.4C48.6,38.2,46.2,38.6,44.4,38.8z"/>
		<path class="st1" d="M93.8,32.9c0,4.3-2.4,6.5-6.7,5.8c-1.9-0.3-3.8-0.6-5.7-1c-2.4-0.5-3.5-1.9-3.6-4.3c-0.1-2.9,1-4.7,3.3-5.3
			c2.2-0.6,4.5-1.1,6.8-1.5C91.1,26.2,93.8,29.1,93.8,32.9z"/>
		<path class="st1" d="M43.5,21c0-2.6,1.9-5.3,4.4-6c1.5-0.4,3-0.3,4.2,0.9c1.4,1.3,2.8,2.5,4.1,3.9c1.6,1.6,1.7,3.4,0.4,5.6
			c-1.2,1.9-2.7,2.5-4.8,1.7c-1.9-0.7-3.8-1.5-5.7-2.3C44.5,24.1,43.6,22.8,43.5,21z"/>
		<path class="st1" d="M83,14.8c2.8,0,5.2,2.1,5.8,5c0.5,2.7-0.5,4.2-3.4,5.4c-1.5,0.6-3,1.3-4.5,1.8c-2.2,0.8-3.7,0.3-5-1.7
			c-1.3-2.1-1.2-3.9,0.4-5.6c1.3-1.3,2.6-2.6,3.9-3.8C81.1,15.2,82,14.8,83,14.8z"/>
		<path class="st0" d="M84.1,63c-1.6,4.8-3.4,9.1-7.3,12.1c-1.7,1.3-3.6,2-5.8,2c-1,0-1.2-0.3-1.1-1.3c0.4-2.5,1.7-4.6,3.4-6.3
			C76.3,66.5,79.9,64.6,84.1,63z"/>
		<path class="st0" d="M48.3,63c4.9,2,9.2,4.2,12.2,8.3c0.9,1.3,1.6,2.7,1.9,4.2c0.2,1.1,0,1.7-1.4,1.7c-3.1-0.1-5.5-1.6-7.5-3.8
			C51,70.4,49.6,67,48.3,63z"/>
		<path class="st0" d="M82,123.7c-3.8-2-7.5-3.9-8.4-8.5c-0.2-0.8-0.2-1.5,0-2.3c0.6-3,1.4-3.3,4-1.7c1.2,0.7,2,1.7,2.7,2.9
			C81.8,117.1,82.2,120.2,82,123.7z"/>
		<path class="st0" d="M58.8,113.9c0.1,2.9-1.2,4.7-3,6.3c-1.3,1.2-2.9,2.2-4.6,3c-0.6,0.3-1.1,0.4-1-0.5c0.2-3.1,0.4-6.3,2.2-9.1
			c0.9-1.4,2.1-2.4,3.6-3c1.3-0.6,2.1-0.3,2.4,1.1C58.7,112.6,58.9,113.4,58.8,113.9z"/>
		<path class="st0" d="M65.1,61.7c0.8,0,1.5,0,2.3-0.1c0,9.4,0,18.8,0,28.2c0,0.9,0,1.8-1.1,1.8c-1.3,0-1.2-1-1.2-1.9
			C65.1,80.4,65.1,71.1,65.1,61.7z"/>
		<path class="st0" d="M26,111c-0.7-0.1-1.7-0.3-2.6-0.3c-1.4,0-1.7-0.4-0.7-1.6c1.7-2.1,3.6-4.1,6.1-5.2c1.6-0.7,3.3-0.8,5-0.3
			c1,0.3,1.2,0.8,1,1.8c-0.8,3-3,4.9-6.6,5.4C27.5,110.9,26.9,110.9,26,111z"/>
		<path class="st0" d="M39.6,119.8c0.6-3,1.6-5.6,3.3-7.9c1.2-1.6,2.8-2.6,4.8-2.9c1.3-0.2,1.9,0.2,2,1.6c0.2,2.7-0.8,4.8-3,6.4
			C44.7,118.5,42.3,119.3,39.6,119.8z"/>
		<path class="st0" d="M109.8,98.6c3,0.1,5.8,1.7,8.3,3.6c0.5,0.4,0.6,0.6-0.1,0.9c-2.9,1.4-5.8,2.7-9.2,1.9
			c-0.5-0.1-1.1-0.3-1.5-0.6c-1.4-0.9-3-2.1-2.7-3.6c0.4-1.5,2.4-2,4-2.1C109,98.6,109.3,98.6,109.8,98.6z"/>
		<path class="st0" d="M99.6,115.3c-2.1,0-4.2-0.3-6.1-1.4c-2-1.1-3.1-2.9-3.4-5.2c-0.2-1,0.2-1.5,1.2-1.7c1.9-0.3,3.7,0.1,5.4,1.2
			c2.3,1.5,3.8,3.7,5.1,6c0.6,1,0.2,1.2-0.7,1.1C100.6,115.3,100.1,115.3,99.6,115.3z"/>
		<path class="st0" d="M106.3,110.9c-4.5,0-7.3-1.7-8.4-4.9c-0.6-1.7-0.4-2.1,1.4-2.6c1.6-0.5,3.2-0.2,4.7,0.5
			c2.6,1.3,4.5,3.3,6.2,5.6c0.5,0.7,0.3,0.9-0.5,1C108.5,110.7,107.3,111,106.3,110.9z"/>
		<path class="st0" d="M22.9,98.6c0.2,0,0.4,0,0.7,0c1.7,0.1,3.3,0.6,4.3,2.1c0.5,0.8-1.6,3.1-3.2,3.9c-2.7,1.2-5.3,0.5-7.9-0.5
			c-1-0.4-2.5-0.6-2.6-1.5c-0.1-1,1.5-1.5,2.4-2C18.5,99.5,20.5,98.6,22.9,98.6z"/>
		<path class="st0" d="M32.8,115.3c-0.8-0.2-2.1,0.4-2.4-0.3c-0.4-0.8,0.6-1.7,1.1-2.4c1.3-2,2.8-3.7,4.9-4.8c1-0.5,2-0.9,3.2-0.9
			c2.8,0,3.3,0.7,2.4,3.4c-1.2,3.4-4,4.4-7.2,4.9C34.1,115.3,33.5,115.3,32.8,115.3z"/>
		<path class="st0" d="M82.7,111.6c0-2.8,0.4-3.1,3-2.4c1.6,0.4,2.9,1.4,3.9,2.7c1.6,2,2.5,4.3,3.1,6.7c0.1,0.5,0.3,1-0.6,1
			c-2.8,0.1-7.7-2.9-8.8-5.5C82.8,113.3,82.6,112.4,82.7,111.6z"/>
		<path class="st0" d="M69.2,101.9c0.1,1.5-0.6,3-1.8,4.3c-0.8,0.9-1.6,1-2.5,0c-1.9-2.1-2.5-4.5-1.7-7.2c0.5-1.6,1.3-3,2.3-4.4
			c0.5-0.7,0.8-0.6,1.2,0.1C68.1,96.8,69.2,99,69.2,101.9z"/>
		<path class="st0" d="M92.2,95.6c0.1-2.3,0.6-4.4,1.4-6.3c0.2-0.4,0.3-1.1,0.9-0.4c2.2,2.6,4.2,5.3,3.6,9.1
			c-0.3,1.7-1.1,3.5-2.6,3.7c-1.5,0.1-2.4-1.8-2.9-3.3C92.3,97.4,92.2,96.4,92.2,95.6z"/>
		<path class="st0" d="M45,91c1.2,3,2.1,5.8,1.5,8.9c-0.1,0.5-0.2,1.1-0.5,1.6c-0.6,1.2-1.4,2.9-2.8,2.7c-1.3-0.1-2-1.8-2.4-3.1
			c-0.6-2,0-3.9,0.9-5.8C42.5,93.7,43.5,92.3,45,91z"/>
		<path class="st0" d="M116.5,91.4c1.8,0.1,3.7,0.5,5.5,1.2c1.1,0.4,1.3,0.9,0.3,1.7c-1.7,1.4-3.6,2.6-5.8,3.1
			c-2.1,0.4-3.8-0.2-5.4-1.5c-0.9-0.7-1-1.4-0.2-2.3C112.5,92.1,114.3,91.5,116.5,91.4z"/>
		<path class="st0" d="M80.6,92.7c2.5,3,4.7,5.7,4.1,9.6c-0.2,1.7-1.1,3.6-2.5,3.7c-1.6,0.1-2.5-1.8-3-3.4
			C78.3,99.2,79.2,96.1,80.6,92.7z"/>
		<path class="st0" d="M32.5,84.8c1.4,3.8,2.6,7.4,0.6,11.1c-0.5,1-1.3,2.1-2.4,2.1c-1.1-0.1-1.7-1.3-2.1-2.3
			c-0.7-1.4-0.7-2.9-0.3-4.4C29,88.8,30.4,86.7,32.5,84.8z"/>
		<path class="st0" d="M38.4,88.4c1.5,3.3,2.4,6.5,1.4,10c-0.4,1.5-1.3,3.2-2.7,3.2c-1.6,0-2.3-1.9-2.7-3.4
			c-0.5-1.6-0.1-3.2,0.5-4.7C35.7,91.6,36.9,90,38.4,88.4z"/>
		<path class="st0" d="M51.8,92.8c1.5,3.6,2.5,7.1,0.9,10.8c-0.5,1.1-1.3,2.4-2.5,2.4c-1.2,0-1.8-1.5-2.3-2.6
			c-0.8-1.8-0.5-3.7,0.3-5.5C49,96.1,50.1,94.4,51.8,92.8z"/>
		<path class="st0" d="M98.4,91.9c0-2.3,0.5-4.3,1.2-6.2c0.2-0.6,0.5-0.9,1-0.3c2.1,2.4,3.9,4.8,3.8,8.2c0,1.5-0.7,2.7-1.7,3.9
			c-0.6,0.8-1.3,0.7-2,0.1C98.9,96,98.3,93.9,98.4,91.9z"/>
		<path class="st0" d="M87.5,90.9c2.2,2.5,4.1,4.9,4.3,8.2c0.1,1.7-0.5,3.1-1.6,4.4c-0.7,0.8-1.3,0.9-2.2,0.2
			c-1.4-1.3-2.1-3-2.2-4.8C85.6,96.1,86.3,93.6,87.5,90.9z"/>
		<path class="st0" d="M58.6,93.7c1.7,2.8,2.7,5.6,2.5,8.7c-0.2,1.7-1.8,4-2.9,4.2c-0.9,0.1-2.7-2-3-3.9
			C54.7,99.1,56.6,96.5,58.6,93.7z"/>
		<path class="st0" d="M77.3,101.5c-0.1,1.1-0.3,2.2-0.9,3.2c-1.5,2.3-2.9,2.3-4.3-0.1c-1.3-2.2-1-4.6-0.2-6.9
			c0.5-1.3,0.7-3.4,2-3.5c1-0.1,1.6,2,2.3,3.2C76.8,98.7,77.2,100,77.3,101.5z"/>
		<path class="st0" d="M28.2,88.2c0,1.8-0.5,3.3-1.7,4.7c-0.7,0.8-1.3,0.8-2.1,0c-1.3-1.3-2-2.9-1.8-4.8c0.2-2.4,1.4-4.4,2.8-6.3
			c0.5-0.7,0.8-0.4,1,0.2C27.4,84,28,86.1,28.2,88.2z"/>
		<path class="st0" d="M106.5,81.2c2,2.5,3.4,5,3.2,8.1c-0.1,1.1-0.4,2-1.1,2.9c-1.4,1.8-2.2,1.7-3.4-0.2c-1-1.5-1.1-3.2-0.8-5
			C104.7,85,105.3,83.2,106.5,81.2z"/>
		<path class="st2" d="M97.4,15.5c-0.2,1.3,0.2,2.4,0.8,3.5c2.1,4.4,4.3,8.9,6.4,13.3c0.1,0.2,0.1,0.4,0.2,1c-1.4-1.7-2.1-3.4-3-4.9
			c-1.8-3.2-3.5-6.4-5.3-9.6C95.7,17.2,96,16.3,97.4,15.5L97.4,15.5z"/>
		<path class="st2" d="M26.7,43.9c0.9-5,1.8-10.1,2.7-15.1c0.2-1.3,0.5-2.5-0.8-3.6c2,0.6,2.6,1.6,2.2,3.5c-0.3,1.3-0.6,2.7-0.9,4
			c-0.9,3.7-1.8,7.5-2.7,11.2C27,44,26.9,43.9,26.7,43.9z"/>
		<path class="st2" d="M99,28.2c-2-2.5-3.6-5.2-5.1-8.1c-0.5-1-0.3-2.2,1.1-2.6l0,0c-0.2,1.3,0.3,2.5,0.8,3.6
			C96.9,23.5,98.4,25.6,99,28.2L99,28.2z"/>
		<path class="st2" d="M99.1,28.1c0.3,0.2,0.5,0.4,0.4,0.8c0,0-0.3,0.1-0.3,0C99.1,28.7,99.1,28.4,99.1,28.1
			C99,28.2,99.1,28.1,99.1,28.1z"/>
		<path class="st2" d="M105.7,35.1c0.1,0.1,0.2,0.2,0.2,0.4C105.5,35.6,105.8,35.2,105.7,35.1L105.7,35.1z"/>
		<path class="st2" d="M31.9,26.8c-0.1,0-0.3-0.1-0.4-0.1c0,0,0.1-0.1,0.1-0.1C31.6,26.7,31.7,26.7,31.9,26.8
			C31.8,26.8,31.9,26.8,31.9,26.8z"/>
		<path class="st2" d="M105.7,35.1c-0.1-0.1-0.1-0.1-0.2-0.2c0,0,0.1,0,0.1,0C105.7,35,105.7,35.1,105.7,35.1
			C105.7,35.1,105.7,35.1,105.7,35.1z"/>
		<polygon class="st2" points="105.2,34.2 105.2,34.3 105.2,34.3 		"/>
		<polygon class="st2" points="104.9,33.6 104.8,33.7 104.8,33.6 		"/>
		<path class="st2" d="M95.1,17.5c0-0.1,0.1-0.1,0.1-0.2c0,0,0,0.1,0,0.1C95.1,17.5,95.1,17.5,95.1,17.5
			C95,17.5,95.1,17.5,95.1,17.5z"/>
		<path class="st2" d="M97.4,15.5c0-0.1,0.1-0.1,0.1-0.2c0,0,0,0.1,0,0.1C97.5,15.5,97.4,15.5,97.4,15.5
			C97.4,15.5,97.4,15.5,97.4,15.5z"/>
		<path class="st4" d="M62.3,23.8c3.9-1.9,8-1.1,10.5,1.9c2.2,2.6,2.6,6.3,0.8,8.7c0.9-3.4,0.3-6.4-2.3-8.8
			C68.8,23.3,65.7,23,62.3,23.8z"/>
	</g>
	<g>
		<path class="st5" d="M255.5,55.9c0-6.6,0-13.3,0-19.9c0-4.5,1.6-6.1,6.2-6.1c8.7,0,17.4,0,26.1,0c3.4,0,5.3,1.6,5.3,4.3
			c0,2.7-1.9,4.3-5.3,4.3c-6.6,0-13.3,0.1-19.9,0c-1.7,0-2.4,0.4-2.2,2.2c0.2,2.4,0.1,4.8,0,7.2c-0.1,1.6,0.5,1.9,2,1.9
			c5.7-0.1,11.5,0,17.2,0c2.1,0,3.6,0.9,4.4,2.9c0.7,1.8,0.2,3.3-1,4.7c-1.1,1.2-2.5,1.2-4,1.2c-5.4,0-10.8,0.1-16.1,0
			c-1.9,0-2.5,0.5-2.4,2.4c0.1,3.5,0.1,7,0,10.5c-0.1,1.7,0.5,2,2.1,2c6.7-0.1,13.4,0,20.2,0c3.3,0,5.3,1.7,5.2,4.4
			c-0.1,2.6-1.9,4.2-5.2,4.2c-8.9,0-17.7,0-26.6,0c-4,0-5.7-1.7-5.8-5.7C255.4,69.6,255.5,62.7,255.5,55.9z"/>
		<path class="st5" d="M139.8,102c0-2.7,0-5.4,0-8.1c0-0.9-0.2-2.1,1.1-2.1c1.5,0,1.2,1.2,1.2,2.2c0,3.6,0,7.2,0,10.7
			c0,0.8,0.1,1.7-0.9,2c-0.9,0.3-1.5-0.4-2-1.1c-2.1-3.1-4.3-6.3-6.8-10c0,3.6,0,6.4,0,9.2c0,0.9,0,2-1.3,1.9c-1.1-0.1-1-1.1-1-1.9
			c0-3.7,0-7.3,0-11c0-0.8-0.2-1.7,0.9-2c1.1-0.3,1.6,0.5,2.1,1.3c1.7,2.4,3.3,4.9,4.9,7.4C138.5,101.1,138.7,101.9,139.8,102z"/>
		<path class="st5" d="M180.2,99.5c0-0.2,0-0.4,0-0.5c0-7.9,0.4-8.3,8.5-7.2c0.8,0.1,1.5,0.2,1.4,1.2c-0.1,0.9-0.8,1-1.6,1
			c-1.4,0-2.9,0.1-4.3,0c-1.8-0.2-1.7,0.8-1.7,2.1c-0.1,1.5,0.5,1.8,1.8,1.7c1.2-0.1,2.5,0,3.8,0c0.8,0,1.5,0.2,1.5,1.1
			c0,0.9-0.8,1-1.6,1c-1.2,0-2.3,0.1-3.5,0c-1.8-0.2-2.2,0.5-2,2.1c0.1,1.1,0,2.3,0,3.5c0,0.8-0.4,1.4-1.2,1.4c-0.8,0-1-0.7-1-1.3
			C180.2,103.5,180.2,101.5,180.2,99.5C180.2,99.5,180.2,99.5,180.2,99.5z"/>
		<path class="st5" d="M169,100.9c-1.6,0.8-3.1,1.1-2.6,2.8c0.4,1.3,1.7,1.1,2.8,1c1.4-0.2,2.2-1,2.3-2.6c0.1-2.2-1.8-0.3-2.3-1.2
			c0-0.5,0.3-0.5,0.7-0.5c0.8-0.1,1.7-0.4,1.5-1.5c-0.2-0.9-1-1.1-1.9-1.2c-1.2-0.1-2.1,0.2-2.8,1.2c-0.3,0.5-0.7,0.8-1.3,0.4
			c-0.8-0.5-0.5-1-0.2-1.6c1.1-2.3,3.2-2.5,5.3-2.1c2,0.3,3.2,1.4,3,3.7c0,0.4,0,0.9,0,1.3c0,1.7,0.3,3.5-0.1,5.1
			c-0.6,2.6-2.6-0.5-4.1,0.8c-1.2,1-3.3,0.4-4.6-1c-0.7-0.8-0.8-1.9-0.3-2.8C165.1,101,166.7,100.8,169,100.9z"/>
		<path class="st5" d="M221.3,101.2c0,1.1,0,2.1,0,3.2c0,1.3,0.3,3.2-2.1,1.6c-0.5-0.4-1,0.3-1.4,0.4c-3.3,1.1-5.5-0.4-5.5-3.8
			c0-1.9,0-3.7,0-5.6c0-0.8,0.2-1.5,1.2-1.5c0.8,0.1,0.8,0.8,0.8,1.4c0,1.6,0,3.2,0,4.8c-0.1,1.6,0.4,2.7,2.1,2.8
			c1.8,0.1,2.8-0.9,3-2.7c0.1-1.6,0-3.2,0-4.8c0-0.7,0-1.6,1-1.5c1,0,0.9,0.9,0.9,1.6C221.3,98.5,221.3,99.9,221.3,101.2z"/>
		<path class="st5" d="M292.4,98.4c0,1.6,0.1,3.2,0,4.8c-0.2,2.5-1.9,3.5-4.2,3.6c-2.5,0.1-4.4-1.3-4.8-3.4
			c-0.1-0.8-0.3-1.7,0.7-2.1c1.1-0.4,1.4,0.4,1.5,1.3c0.3,1.5,1.3,2.1,2.7,1.9c1.6-0.2,1.8-1.4,1.8-2.8c0-2.7,0-5.4,0-8
			c0-0.9-0.1-2,1.2-2c1.3,0,1.1,1.2,1.1,2C292.4,95.4,292.4,96.9,292.4,98.4C292.4,98.4,292.4,98.4,292.4,98.4z"/>
		<path class="st5" d="M159,104.3c1-3,1.8-5.3,2.5-7.6c0.2-0.7,0.5-1.5,1.5-1.1c0.9,0.3,0.7,1,0.5,1.8c-1,2.7-1.9,5.3-2.9,8
			c-0.3,0.7-0.7,1.3-1.5,1.3c-1,0.1-1.4-0.6-1.7-1.4c-1-2.6-1.9-5.2-2.8-7.8c-0.3-0.8-0.6-1.7,0.5-2c1.1-0.3,1.3,0.8,1.5,1.5
			C157.3,99.3,158,101.4,159,104.3z"/>
		<path class="st5" d="M223,101.2c0-1.2,0-2.3,0-3.5c0-1.4-0.1-3,2.1-1.4c0.6,0.5,1.1-0.6,1.7-0.7c0.7-0.1,1.3-0.1,1.5,0.7
			c0.2,0.6,0,1.2-0.6,1.3c-3,0.5-2.7,2.8-2.7,4.9c0,1.1,0,2.1,0,3.2c0,0.6-0.3,1-1,1.1c-0.7,0-1-0.5-1-1
			C223,104.2,223.1,102.7,223,101.2C223,101.2,223,101.2,223,101.2z"/>
		<path class="st5" d="M191.3,101.1c0-1.1-0.1-2.2,0-3.2c0.1-1.1-0.6-3.6,2.1-1.6c0.6,0.4,1.1-0.6,1.8-0.8c0.7-0.1,1.3,0,1.5,0.8
			c0.1,0.6-0.1,1.2-0.7,1.3c-2.7,0.4-2.7,2.4-2.7,4.4c0,0.9,0,1.8,0,2.7c0,0.8,0.3,2.1-1,2c-1.2-0.1-1-1.3-1-2.1
			C191.3,103.4,191.3,102.3,191.3,101.1z"/>
		<path class="st5" d="M199.7,101.2c0,1.4,0,2.9,0,4.3c0,0.7-0.2,1.3-1,1.3c-0.7,0-0.9-0.6-0.9-1.1c0-3,0-5.9,0-8.9
			c0-0.5,0.3-1.1,0.9-1.1c0.8-0.1,1,0.6,1,1.2C199.8,98.3,199.7,99.7,199.7,101.2z"/>
		<path class="st5" d="M260,100.5c-1.4-0.7-3.7,0.8-3.7-1.1c-0.1-2.3,2.4-1.2,3.6-1.1c1.3,0.1,3.9-1.4,3.8,1.1
			C263.6,101.6,261.1,99.6,260,100.5z"/>
		<path class="st5" d="M199.9,92.7c-0.2,0.6-0.4,1.2-1.1,1.1c-0.6-0.1-1.1-0.6-1.1-1.3c0-0.6,0.5-0.9,1-1
			C199.4,91.6,199.8,91.9,199.9,92.7z"/>
		<path class="st5" d="M197.1,30c-5.2,0-10.4,0-15.6,0c-4.5,0-6.2,1.6-6.2,6.1c0,6.6,0,13.2,0,19.9c0,6.8,0,13.6,0,20.4
			c0,3.6,1.9,5.7,4.9,5.8c3.2,0,5.1-2.1,5.2-5.8c0.1-3.4,0.1-6.8,0-10.2c-0.1-2.1,0.3-3,2.7-2.8c3,0.2,6.1,0.1,9.1,0
			c9.4-0.2,16.8-7.6,16.7-16.7C213.9,37.3,206.5,30,197.1,30z M196.7,54.6c-3.2,0.1-6.4,0-9.7,0.1c-1.4,0-1.6-0.5-1.6-1.7
			c0.1-2.1,0-4.3,0-6.4c0-1,0-2.1,0-3.1c0-1,0-2.1,0-3.1c-0.1-1.3,0.2-1.9,1.8-1.9c3.1,0.1,6.3,0,9.4,0.1c4.4,0.2,7.8,3.7,7.8,8
			C204.5,50.7,201,54.4,196.7,54.6z"/>
		<path class="st5" d="M171,74.6c-2.9-8.2-5.7-16.3-8.6-24.5c-1.7-4.9-3.4-9.8-5.2-14.6c-1.2-3.1-3.1-5.4-6.7-5.7
			c-4.1,0.1-6,2.7-7.2,6c-4.7,13-9.3,26-13.9,39.1c-1.1,3.2,0.3,6.2,3.1,7c2.9,0.8,5.5-0.7,6.6-3.9c1.1-3.4,2.1-6.8,3.1-10.2
			c0.3-1.2,0.7-1.8,2.1-1.8c4,0.1,8.1,0.1,12.1,0c1.4,0,1.8,0.5,2.1,1.8c0.9,3.4,2.1,6.8,3.1,10.3c0.4,1.4,1.1,2.7,2.4,3.4
			c2,1.1,4,1.1,5.8-0.4C171.8,79.3,171.8,77,171,74.6z M144.9,58.1c1.7-5.7,3.4-11.4,5.1-17.1c0.2,0,0.4,0,0.5,0
			c1.6,5.6,3.3,11.3,5,17.1C152,58.1,148.6,58.1,144.9,58.1z"/>
		<path class="st5" d="M251.2,74.8c-0.8-2.5-1.7-4.9-2.6-7.3c-3.8-10.6-7.5-21.2-11.3-31.8c-1.1-3.2-3.1-5.7-6.9-5.8
			c-3.9-0.1-5.7,2.6-7,5.7c-1.1,2.8-2.1,5.7-3.1,8.6c-3.6,10.1-7.2,20.2-10.7,30.3c-1.2,3.5-0.2,6.4,2.7,7.4c3,1,5.7-0.6,6.9-4.1
			c0.5-1.4,0.9-2.9,1.4-4.3c0.8-2.4,0.9-5.5,2.5-6.9c1.6-1.5,4.8-0.3,6.8-0.4c2.5,0,4.5,0.1,6.6,0c1.2,0,1.7,0.4,2,1.5
			c0.9,3.4,2,6.8,3.1,10.2c1,3.4,3.8,5,6.7,4.1C251,81,252.2,78.1,251.2,74.8z M225,58.2c1.7-5.8,3.4-11.5,5.1-17.3
			c0.2,0,0.3,0,0.5,0.1c1.7,5.7,3.3,11.4,5,17.2C232.1,58.2,228.7,58.2,225,58.2z"/>
		<path class="st5" d="M280.5,99.6c1.6-1.2,3-2.6,2.1-4.9c-0.9-2.4-2.8-3-5.2-2.9c-1.6,0.1-3.2,0.1-4.8,0c-1.5-0.1-2.1,0.6-2.1,2.1
			c0,3.8,0,7.5,0,11.3c0,0.8,0.1,1.7,1.2,1.7c0.9-0.1,1.1-0.8,1-1.6c0-1.1,0.1-2.2,0-3.2c-0.1-1.4,0.4-1.6,1.7-1.6
			c4.7-0.1,4.8-0.2,5.6,4.5c0.1,0.4,0.1,0.7,0.2,1.1c0.2,0.6,0.5,0.9,1.2,0.9c0.6-0.1,1.1-0.5,1-1.1
			C282,103.6,282.7,101.1,280.5,99.6z M278,98.2c-0.6,0-1.2,0-2.1,0c-0.8-0.8-3,1.6-3.2-1.5c-0.2-2.3,0.4-3.3,2.8-2.9
			c0.8,0.1,1.6,0,2.4,0c1.4,0,2.5,0.6,2.5,2.1C280.5,97.6,279.5,98.2,278,98.2z"/>
		<path class="st5" d="M238.8,97.1c0-0.7-0.4-1.9-1-1.4c-1.5,1.2-2.6,0-3.8-0.1c-2.6-0.3-4.8,1.3-5.2,4c-0.3,2.3-0.5,4.8,1.7,6.4
			c2,1.5,4.1,1.1,6.2-0.2c-0.1,3.6-2.1,4.5-5.4,2.6c-0.6-0.3-1-0.8-1.6-0.2c-0.6,0.6,0,1.2,0.4,1.6c1.6,1.4,3.6,1.5,5.5,0.9
			c1.8-0.5,3-1.7,3.1-3.6C238.9,103.7,238.8,100.4,238.8,97.1z M234.1,104.7c-2.6-0.1-3.6-1.4-3.6-3.5c0-2,0.8-3.5,3.1-3.5
			c2.2,0,3.2,1.3,3.2,3.4C236.9,103.2,235.9,104.5,234.1,104.7z"/>
		<path class="st5" d="M209.8,97.1c-1.7-2.2-4-1.9-6.3-0.8c-0.6-1.1-0.2-2.2-0.3-3.3c-0.1-0.7-0.2-1.3-1-1.3c-0.8,0-1,0.6-1,1.3
			c0,4.1,0,8.2,0,12.3c0,1.1,0.6,1.9,1.7,1c0.8-0.7,1.3,0,1.9,0.1c2.6,0.7,4.6-0.1,5.7-2.6C211.5,101.6,211.4,99.2,209.8,97.1z
			 M206,104.6c-2.1,0-2.8-1.6-3-3.1c0-2.3,1.4-3.9,3.1-3.8c2.1,0.1,3,1.5,3,3.4C209.1,103.1,208.2,104.6,206,104.6z"/>
		<path class="st5" d="M245.3,95.5c-3.2,0-5.3,2.1-5.3,5.4c-0.1,3.5,1.9,5.8,5.1,5.9c3.2,0.1,5.5-2.2,5.5-5.5
			C250.6,97.9,248.4,95.5,245.3,95.5z M245.4,104.7c-2.1,0.1-3.5-1.2-3.5-3.5c0-2.2,1.3-3.6,3.4-3.5c2.3,0,3.1,1.4,3.2,3.5
			C248.4,103.1,247.7,104.6,245.4,104.7z"/>
		<path class="st5" d="M148.3,95.5c-3.2,0.1-5.2,2.4-5.2,5.9c0.1,3.3,2.2,5.4,5.3,5.4c3.2,0,5.4-2.4,5.4-5.7
			C153.8,97.7,151.5,95.4,148.3,95.5z M148.5,104.7c-2.2,0-3.2-1.2-3.3-3.3c-0.1-2.2,1.2-3.6,3.8-3.7c1.7,0,2.7,1.3,2.8,3.3
			C151.9,103.2,150.6,104.7,148.5,104.7z"/>
	</g>
</g>
<g id="Camada_1" class="st6">
	<g class="st7">
		<path class="st8" d="M77.2,149.8c-1.3-0.7-1.6-1.7-1.6-3.1c0.1-7,0-14.1,0-21.1c0-3.4-0.7-4.2-4-4.4c-9-0.6-17.8-2-26.2-5
			c-9.1-3.3-17.3-7.9-23.6-15.4c-0.8-0.9-1.5-1.9-2.2-2.9c-0.7-1.1-1.5-1.9-2.9-2.3c-3.2-1-4.7-3.5-5.2-6.7
			c-0.4-2.9-0.2-5.8,0.6-8.6c5.5,2.6,8.7,8.9,7.2,14.5c-0.3,1.1,0.3,1.6,0.8,2.3c5.4,7.5,12.8,12.3,21.3,15.8
			c10.6,4.3,21.7,6.1,33,6.4c14.8,0.4,27.3-1.9,37.8-6.1c8.5-3.4,16-8.2,21.7-15.6c0.9-1.2,1.4-2.2,0.9-3.9
			c-0.6-1.7-0.3-3.5,0.3-5.2c1.1-3,4.1-6.5,7.2-8.3c1,3.4,1.3,6.7,0.4,10.1c-0.8,2.8-2.5,4.7-5.4,5.5c-0.8,0.2-1.4,0.5-1.9,1.2
			c-7,10.5-17.3,16.3-29,20.1c-7.7,2.5-15.6,3.6-23.6,4.1c-3.3,0.2-4,1.1-4,4.4c0,7,0,14.1,0,21.1c0,1.3-0.3,2.3-1.3,3.1
			C77.4,149.8,77.3,149.8,77.2,149.8z"/>
		<path class="st8" d="M87-10.4c1.5,0.7,3.1,1.2,4.4,2.3c2.3,2.1,2.8,4.6,1.2,7.3c-1.4,2.2-2.8,4.4-4.4,6.5
			c-1.9,2.4-3.8,2.7-6.6,1.4c-2.8-1.3-3.8-3.3-3.2-6.2c0.5-2.2,1-4.4,1.5-6.6c0.5-2.5,2.4-3.5,4.2-4.7C85-10.4,86-10.4,87-10.4z"/>
		<path class="st8" d="M69.9-10.4c3.3,1,4.9,3.2,5.3,6.5c0.2,1.5,0.7,3,1,4.6c0.6,3.1-0.5,5.2-3.5,6.5c-3,1.3-4.7,0.8-6.7-2
			c-1.2-1.7-2.4-3.4-3.5-5.1C60.1-3.7,61-7.1,65-9.3c0.7-0.4,1.5-0.3,2-1.1C67.9-10.4,68.9-10.4,69.9-10.4z"/>
		<path class="st8" d="M3.9,100c3.6-1.6,7.2-2.9,11.2-2.2c0.1,0,0.3,0,0.4,0.1c2.2,0.5,5.2,2.7,5.2,3.9c0,1.4-3.6,3.6-6,3.7
			c-3.4,0.1-6.2-1.6-8.8-3.6c-0.7-0.5-1.1-1.3-2-1.4C3.9,100.2,3.9,100.1,3.9,100z"/>
		<path class="st8" d="M125,43.6c1.1-0.2,1-0.9,1.2-1.5c1.5-4.6,2.9-9.2,4.5-13.7c0.4-1.3,0.2-2.3-0.4-3.5
			c-3.5-6.8-6.9-13.7-10.3-20.5c-0.5-0.9-0.9-1.9-1.3-2.9c-0.7-2.4,0-4.3,1.7-5.2c2-1,4.5-0.4,5.8,1.6c2.3,3.5,4.5,7.1,6.6,10.6
			c3,4.9,6,9.8,9,14.7c0.7,1.1,1.1,2.2,1,3.4c-0.6,6.3-1.1,12.5-1.7,18.8c-0.2,2.3-1.7,4.2-2.9,6.1c-2.9,4.9-4.9,10.2-7.4,15.3
			c-0.3,0.6-0.4,1.2-0.4,1.9c0.2,3.5-0.2,7.1,0.4,10.6c0.2,1.1-0.1,1.8-1.3,2.3c-4.8,2.2-9.6,4.5-14.4,6.8c-1.1,0.5-1.6,0.5-1.8-0.9
			c-0.9-6.1-1.9-12.2-2.8-18.2c-0.9-5.8,0.3-11.6,2.2-17.1c2-5.6,2.9-11.3,2.9-17.3c0-3.9-0.1-7.8,0.6-11.6c0.5-2.9,2.2-4.9,4.1-4.9
			c1.8,0,4.4,2.9,4.5,5.4C125.3,30.4,126.9,36.9,125,43.6z"/>
		<path class="st8" d="M33.3,14.8c2.2,0.9,2.6,2,1.9,4.6c-0.9,3.3-1.8,6.5-2.8,9.8c-0.4,1.3-0.8,2.1,1.2,2.4
			c2.1,0.3,2.9,2.4,3.5,4.2c1,2.9,1.9,5.8,2.7,8.7c2,7.6,5.3,14.6,8.9,21.6c2,4,3.8,8.1,3.4,12.8c-0.4,4.7-1.3,9.2-2.2,13.8
			c-0.3,1.6-1.2,0.6-1.7,0.3c-4.1-2.2-8.1-4.4-12.2-6.6c-0.6-0.3-1.2-0.7-1.9-1c-1.2-0.5-1.6-1.3-1.1-2.5c0.5-1.3,0.1-2.3-0.7-3.3
			c-3.8-5-7.1-10.4-11.7-14.9c-2.5-2.4-3-5.9-4.3-9c-1.2-3.1-2.3-6.3-3.5-9.4c-0.7-1.9-0.8-3.7-0.2-5.6c2.6-8.9,5.1-17.8,7.7-26.7
			c0.7-2.5,2.2-3.8,4.2-3.9c2.3-0.1,3.8,1.3,3.9,3.6c0.2,3.5-0.9,6.7-1.5,10c-1,5.7-2.2,11.4-3.3,17.1c-0.2,0.8-0.1,1.4,0.3,2
			c2.8,4.3,5.6,8.7,8.5,13c0.6-0.6,0.2-1.1-0.1-1.7c-2.4-5.4-2.7-11.3-3.9-16.9c-0.3-1.4,0-2.9,1-3.8c2.1-2,2.2-4.5,2.6-7
			c0.5-2.7,1-5.4,1.5-8.1C33.8,17.1,33.9,15.9,33.3,14.8L33.3,14.8z"/>
		<path class="st8" d="M266.2,57.9c0-5.3,0-10.5,0-15.8c0-3.6,1.3-4.8,4.9-4.8c6.9,0,13.8,0,20.7,0c2.7,0,4.2,1.3,4.2,3.4
			c0,2.2-1.5,3.4-4.2,3.4c-5.3,0-10.5,0-15.8,0c-1.4,0-1.9,0.3-1.8,1.7c0.1,1.9,0.1,3.8,0,5.7c-0.1,1.2,0.4,1.5,1.5,1.5
			c4.5-0.1,9.1,0,13.6,0c1.7,0,2.8,0.7,3.5,2.3c0.6,1.4,0.2,2.6-0.8,3.7c-0.9,0.9-2,1-3.2,1c-4.3,0-8.5,0.1-12.8,0
			c-1.5,0-1.9,0.4-1.9,1.9c0.1,2.8,0.1,5.5,0,8.3c-0.1,1.4,0.4,1.6,1.7,1.6c5.3-0.1,10.7,0,16,0c2.6,0,4.2,1.3,4.1,3.5
			c-0.1,2.1-1.5,3.3-4.1,3.3c-7,0-14.1,0-21.1,0c-3.2,0-4.5-1.4-4.6-4.5C266.2,68.7,266.2,63.3,266.2,57.9z"/>
		<path class="st8" d="M77.2,7.5c7.5,0,13.6,5.8,13.6,12.9c0,7.5-6,13.4-13.6,13.4c-7.4,0-13.6-6.1-13.5-13.3
			C63.7,13.3,69.8,7.5,77.2,7.5z M72.3,10.9c4.2-1,8.2-0.6,11.5,2.4c3.3,3,4.2,6.9,3,11.2c2.3-3.1,1.8-7.8-1-11.1
			C82.6,9.5,77.4,8.5,72.3,10.9z"/>
		<path class="st8" d="M75.8,59.5c-2.4-0.6-4.6-1.3-6.4-3.2c-1.7-1.9-2.5-4.1-1.9-6.6c0.7-3,1.3-6.1,2-9.1c0.9-3.9,3.6-5.7,8.1-5.6
			c3.9,0.1,6.1,2,6.8,6c0.5,2.9,0.9,5.9,1.4,8.8c0.8,5.1-1.2,8-6.2,9.4c-0.3,0.1-0.5,0.2-0.8,0.3C77.8,59.4,76.8,59.5,75.8,59.5z"/>
		<path class="st8" d="M106.5,40.8c0,4.5-3.9,9-8.4,9.7c-2.6,0.4-4.8-0.7-6.3-2.7c-2-2.6-3.9-5.2-5.7-7.9c-2-3-1.7-5.5,0.8-8.1
			c2.8-3,5.7-3.6,8.7-1.8c2.7,1.6,5.3,3.3,7.9,5C105.6,36.4,106.5,38.4,106.5,40.8z"/>
		<path class="st8" d="M48.1,41c-0.1-2.7,1-4.7,3.2-6.2c2.5-1.6,4.9-3.2,7.4-4.7c3.1-1.9,6-1.4,8.8,1.5c2.7,2.7,3,5.3,0.9,8.4
			c-1.4,2.1-3,4.1-4.5,6.2c-1.8,2.6-3.9,4.8-7.5,4.3c-3.7-0.6-6.2-2.9-7.8-6.3C48.2,43.2,48,42,48.1,41z"/>
		<path class="st8" d="M49.4,30.2c-5,0-7.9-3.5-7.5-8.1c0.4-4.7,3.8-8.9,9.6-7.1c2.1,0.6,4.3,0.9,6.4,1.5c3.2,0.8,4.6,3,4.6,6.7
			c-0.1,3.2-1.5,5-4.7,5.6C54.7,29.4,51.7,29.8,49.4,30.2z"/>
		<path class="st8" d="M112.6,22.6c0,5.6-3.1,8.3-8.5,7.5c-2.5-0.4-4.9-0.7-7.3-1.2c-3-0.6-4.5-2.4-4.7-5.5c-0.1-3.7,1.2-6,4.2-6.8
			c2.9-0.8,5.8-1.4,8.7-1.9C109.1,13.9,112.6,17.6,112.6,22.6z"/>
		<path class="st8" d="M48.2,7.3c0-3.4,2.4-6.8,5.6-7.7c1.9-0.5,3.8-0.3,5.3,1.1c1.8,1.6,3.5,3.3,5.2,5c2.1,2.1,2.2,4.4,0.5,7.1
			c-1.5,2.4-3.4,3.2-6.1,2.2c-2.5-0.9-4.9-1.9-7.3-3C49.4,11.2,48.3,9.6,48.2,7.3z"/>
		<path class="st8" d="M98.7-0.6c3.6,0,6.7,2.7,7.4,6.4c0.7,3.4-0.6,5.4-4.3,6.9c-1.9,0.8-3.8,1.6-5.7,2.3c-2.9,1-4.8,0.4-6.4-2.2
			c-1.7-2.7-1.6-5,0.5-7.1c1.6-1.7,3.4-3.3,5.1-4.9C96.3-0.1,97.5-0.7,98.7-0.6z"/>
		<path class="st8" d="M100.2,61.1c-2,6.1-4.3,11.6-9.3,15.5c-2.2,1.7-4.7,2.6-7.5,2.6c-1.2,0-1.6-0.4-1.4-1.6
			c0.5-3.2,2.1-5.8,4.4-8.1C90.3,65.7,94.9,63.1,100.2,61.1z"/>
		<path class="st8" d="M54.4,61.1c6.2,2.6,11.7,5.4,15.6,10.6c1.2,1.6,2,3.4,2.4,5.4c0.3,1.5,0,2.2-1.7,2.1c-4-0.2-7-2.1-9.6-4.9
			C57.9,70.6,55.9,66.2,54.4,61.1z"/>
		<path class="st8" d="M97.6,138.9c-4.9-2.6-9.5-5-10.8-10.8c-0.2-1-0.2-2,0-2.9c0.8-3.8,1.8-4.2,5.1-2.2c1.5,0.9,2.6,2.2,3.4,3.7
			C97.2,130.4,97.8,134.4,97.6,138.9z"/>
		<path class="st8" d="M67.9,126.3c0.1,3.7-1.6,6-3.8,8.1c-1.7,1.6-3.7,2.8-5.8,3.8c-0.8,0.4-1.4,0.5-1.3-0.7c0.2-4,0.6-8,2.8-11.6
			c1.1-1.8,2.7-3.1,4.6-3.9c1.7-0.7,2.6-0.4,3.1,1.5C67.7,124.6,67.9,125.7,67.9,126.3z"/>
		<path class="st8" d="M75.8,59.5c1,0,2-0.1,3-0.1c0,12.1,0,24.1,0,36.2c0,1.1,0,2.3-1.5,2.3c-1.7,0-1.5-1.3-1.5-2.5
			C75.8,83.5,75.8,71.5,75.8,59.5z"/>
		<path class="st8" d="M25.7,122.6c-0.9-0.1-2.1-0.4-3.4-0.4c-1.8-0.1-2.1-0.6-0.9-2c2.2-2.7,4.6-5.2,7.9-6.6c2.1-0.9,4.2-1,6.4-0.3
			c1.3,0.4,1.6,1.1,1.3,2.4c-1,3.9-3.9,6.3-8.5,6.9C27.7,122.5,26.9,122.5,25.7,122.6z"/>
		<path class="st8" d="M43.2,133.9c0.7-3.9,2-7.2,4.3-10.1c1.6-2,3.6-3.3,6.2-3.7c1.7-0.3,2.5,0.3,2.6,2.1c0.3,3.5-1.1,6.2-3.8,8.3
			C49.7,132.3,46.7,133.3,43.2,133.9z"/>
		<path class="st8" d="M133.1,106.7c3.9,0.2,7.4,2.1,10.7,4.6c0.6,0.5,0.7,0.8-0.1,1.2c-3.7,1.9-7.5,3.5-11.8,2.4
			c-0.7-0.2-1.4-0.4-2-0.8c-1.8-1.1-3.9-2.7-3.4-4.6c0.5-1.9,3-2.5,5.1-2.7C132.1,106.7,132.4,106.7,133.1,106.7z"/>
		<path class="st8" d="M120.1,128.1c-2.7,0-5.4-0.4-7.8-1.8c-2.6-1.5-4-3.7-4.4-6.6c-0.2-1.3,0.3-2,1.6-2.2c2.5-0.4,4.8,0.1,6.9,1.5
			c2.9,1.9,4.8,4.7,6.6,7.7c0.8,1.3,0.3,1.6-1,1.5C121.4,128.1,120.7,128.1,120.1,128.1z"/>
		<path class="st8" d="M128.6,122.5c-5.8,0-9.4-2.1-10.7-6.3c-0.7-2.2-0.5-2.7,1.8-3.3c2.1-0.6,4.1-0.3,6,0.6c3.3,1.6,5.8,4.2,8,7.2
			c0.7,0.9,0.4,1.2-0.6,1.3C131.5,122.3,130,122.7,128.6,122.5z"/>
		<path class="st8" d="M21.8,106.7c0.3,0,0.6,0,0.9,0c2.2,0.2,4.3,0.8,5.5,2.7c0.6,1-2,4-4.1,5c-3.5,1.5-6.8,0.7-10.1-0.6
			c-1.2-0.5-3.3-0.8-3.3-1.9c-0.1-1.3,1.9-1.9,3-2.6C16.1,107.9,18.8,106.7,21.8,106.7z"/>
		<path class="st8" d="M34.5,128.2c-1-0.2-2.7,0.5-3.1-0.4c-0.5-1,0.8-2.1,1.4-3.1c1.6-2.5,3.6-4.8,6.3-6.2c1.3-0.7,2.6-1.1,4-1.1
			c3.6,0,4.3,0.9,3,4.3c-1.5,4.3-5.2,5.7-9.3,6.3C36.1,128.2,35.3,128.1,34.5,128.2z"/>
		<path class="st8" d="M98.4,123.4c0-3.6,0.6-4,3.8-3.1c2.1,0.6,3.7,1.8,5,3.5c2,2.5,3.1,5.5,4,8.6c0.2,0.6,0.4,1.2-0.7,1.3
			c-3.6,0.1-9.9-3.8-11.3-7C98.6,125.5,98.3,124.4,98.4,123.4z"/>
		<path class="st8" d="M81.1,110.9c0.2,2-0.8,3.9-2.3,5.5c-1.1,1.2-2,1.2-3.2,0c-2.4-2.7-3.2-5.7-2.1-9.2c0.6-2,1.7-3.9,2.9-5.6
			c0.6-0.9,1-0.7,1.5,0.1C79.7,104.4,81.1,107.2,81.1,110.9z"/>
		<path class="st8" d="M110.5,102.9c0.2-3,0.7-5.6,1.8-8.1c0.2-0.5,0.4-1.4,1.1-0.5c2.8,3.3,5.4,6.8,4.6,11.6
			c-0.3,2.1-1.4,4.5-3.4,4.7c-1.9,0.1-3-2.3-3.7-4.2C110.7,105.2,110.6,103.9,110.5,102.9z"/>
		<path class="st8" d="M50.1,96.9c1.5,3.8,2.6,7.4,1.9,11.4c-0.1,0.7-0.3,1.4-0.6,2c-0.8,1.6-1.8,3.7-3.6,3.5
			c-1.7-0.2-2.6-2.3-3.1-4c-0.8-2.6-0.1-5,1.1-7.4C47,100.4,48.2,98.7,50.1,96.9z"/>
		<path class="st8" d="M141.7,97.5c2.4,0.1,4.8,0.7,7.1,1.6c1.4,0.5,1.7,1.2,0.4,2.2c-2.2,1.8-4.6,3.4-7.4,3.9
			c-2.6,0.5-4.9-0.2-6.9-1.9c-1.1-0.9-1.3-1.8-0.2-3C136.6,98.3,139,97.6,141.7,97.5z"/>
		<path class="st8" d="M95.8,99.1c3.2,3.8,6,7.3,5.3,12.3c-0.3,2.1-1.4,4.6-3.3,4.8c-2,0.2-3.2-2.3-3.8-4.3
			C92.7,107.5,94,103.5,95.8,99.1z"/>
		<path class="st8" d="M34.1,89c1.8,4.9,3.3,9.5,0.7,14.3c-0.7,1.3-1.6,2.7-3.1,2.6c-1.4-0.1-2.1-1.7-2.7-3
			c-0.8-1.8-0.9-3.7-0.3-5.6C29.6,94.1,31.5,91.5,34.1,89z"/>
		<path class="st8" d="M41.7,93.7c1.9,4.2,3.1,8.3,1.8,12.8c-0.5,1.9-1.6,4.1-3.5,4.1c-2,0-2.9-2.4-3.4-4.3c-0.6-2.1-0.1-4.1,0.7-6
			C38.2,97.8,39.7,95.7,41.7,93.7z"/>
		<path class="st8" d="M58.9,99.3c1.9,4.6,3.2,9.1,1.2,13.8c-0.6,1.4-1.6,3.1-3.2,3.1c-1.6-0.1-2.3-1.9-2.9-3.3
			c-1-2.4-0.6-4.7,0.3-7C55.3,103.5,56.7,101.3,58.9,99.3z"/>
		<path class="st8" d="M118.5,98.1c0-3,0.7-5.5,1.6-8c0.3-0.8,0.6-1.1,1.3-0.4c2.6,3,5,6.2,4.8,10.5c-0.1,1.9-0.9,3.5-2.1,5
			c-0.8,1-1.6,0.9-2.5,0.1C119.2,103.3,118.4,100.7,118.5,98.1z"/>
		<path class="st8" d="M104.5,96.8c2.9,3.2,5.3,6.3,5.5,10.6c0.1,2.2-0.6,4-2.1,5.6c-0.9,1.1-1.7,1.2-2.8,0.2
			c-1.8-1.7-2.7-3.8-2.8-6.2C102.1,103.5,103,100.3,104.5,96.8z"/>
		<path class="st8" d="M67.6,100.4c2.2,3.6,3.5,7.1,3.1,11.1c-0.2,2.2-2.3,5.2-3.7,5.4c-1.2,0.2-3.4-2.6-3.8-5
			C62.6,107.4,64.9,104,67.6,100.4z"/>
		<path class="st8" d="M91.5,110.4c-0.1,1.4-0.4,2.8-1.1,4c-1.9,3-3.7,3-5.5-0.1c-1.7-2.9-1.3-5.9-0.2-8.8c0.6-1.7,0.9-4.3,2.5-4.5
			c1.3-0.1,2.1,2.5,2.9,4.1C90.9,106.8,91.4,108.6,91.5,110.4z"/>
		<path class="st8" d="M28.5,93.5c0,2.3-0.7,4.3-2.2,6c-0.9,1.1-1.7,1-2.6,0c-1.7-1.7-2.6-3.8-2.3-6.2c0.3-3.1,1.8-5.6,3.5-8.1
			c0.6-0.9,1-0.5,1.3,0.2C27.6,88,28.3,90.7,28.5,93.5z"/>
		<path class="st8" d="M128.9,84.4c2.5,3.2,4.4,6.4,4.1,10.4c-0.1,1.4-0.6,2.6-1.4,3.7c-1.8,2.3-2.8,2.2-4.4-0.3
			c-1.3-2-1.4-4.2-1.1-6.4C126.6,89.3,127.4,86.9,128.9,84.4z"/>
		<path class="st8" d="M174.6,94.5c0-2.2,0-4.3,0-6.4c0-0.7-0.1-1.6,0.8-1.7c1.2,0,1,1,1,1.7c0,2.8,0,5.7,0,8.5
			c0,0.6,0.1,1.3-0.7,1.6c-0.7,0.2-1.2-0.3-1.5-0.9c-1.7-2.5-3.4-5-5.4-7.9c0,2.8,0,5.1,0,7.3c0,0.7,0,1.6-1,1.5
			c-0.9,0-0.8-0.8-0.8-1.5c0-2.9,0-5.8,0-8.7c0-0.6-0.1-1.4,0.7-1.6c0.9-0.3,1.3,0.4,1.7,1c1.3,1.9,2.6,3.9,3.9,5.8
			C173.5,93.7,173.7,94.4,174.6,94.5z"/>
		<path class="st8" d="M206.6,92.5c0-0.1,0-0.3,0-0.4c0-6.3,0.3-6.6,6.7-5.7c0.6,0.1,1.2,0.2,1.1,0.9c-0.1,0.7-0.7,0.8-1.3,0.8
			c-1.1,0-2.3,0.1-3.4,0c-1.4-0.2-1.3,0.7-1.4,1.7c-0.1,1.2,0.4,1.4,1.5,1.4c1-0.1,2,0,3,0c0.6,0,1.2,0.1,1.2,0.9
			c0,0.7-0.6,0.8-1.2,0.8c-0.9,0-1.9,0.1-2.8,0c-1.4-0.2-1.7,0.4-1.6,1.7c0.1,0.9,0,1.8,0,2.8c0,0.6-0.3,1.1-1,1.1
			c-0.6,0-0.8-0.5-0.8-1.1C206.6,95.6,206.6,94,206.6,92.5C206.6,92.5,206.6,92.5,206.6,92.5z"/>
		<path class="st8" d="M197.7,93.6c-1.2,0.7-2.5,0.8-2.1,2.2c0.3,1.1,1.4,0.9,2.2,0.8c1.1-0.2,1.7-0.8,1.8-2
			C199.7,92.8,198.2,94.2,197.7,93.6c0.1-0.4,0.3-0.4,0.6-0.4c0.7-0.1,1.3-0.3,1.2-1.2c-0.1-0.7-0.8-0.9-1.5-1
			c-0.9-0.1-1.7,0.1-2.2,1c-0.2,0.4-0.6,0.6-1.1,0.3c-0.6-0.4-0.4-0.8-0.1-1.3c0.9-1.8,2.5-2,4.2-1.7c1.6,0.3,2.6,1.1,2.4,2.9
			c0,0.4,0,0.7,0,1.1c0,1.3,0.2,2.7-0.1,4c-0.5,2.1-2.1-0.4-3.3,0.6c-0.9,0.8-2.6,0.3-3.6-0.8c-0.6-0.7-0.6-1.5-0.3-2.2
			C194.6,93.7,195.9,93.5,197.7,93.6z"/>
		<path class="st8" d="M239.2,93.8c0,0.8,0,1.7,0,2.5c0,1.1,0.3,2.6-1.6,1.3c-0.4-0.3-0.8,0.2-1.1,0.3c-2.6,0.9-4.4-0.3-4.4-3
			c0-1.5,0-3,0-4.5c0-0.6,0.2-1.2,0.9-1.2c0.7,0,0.7,0.6,0.7,1.1c0,1.3,0,2.5,0,3.8c0,1.2,0.3,2.1,1.7,2.2c1.4,0.1,2.3-0.7,2.3-2.1
			c0.1-1.3,0-2.5,0-3.8c0-0.6,0-1.3,0.8-1.2c0.8,0,0.7,0.7,0.7,1.3C239.2,91.7,239.2,92.8,239.2,93.8z"/>
		<path class="st8" d="M295.5,91.6c0,1.3,0.1,2.6,0,3.8c-0.2,2-1.5,2.8-3.3,2.8c-2,0.1-3.5-1-3.8-2.7c-0.1-0.6-0.2-1.4,0.5-1.6
			c0.8-0.3,1.1,0.3,1.2,1c0.2,1.2,1,1.7,2.1,1.5c1.3-0.2,1.4-1.1,1.4-2.2c0-2.1,0-4.2,0-6.4c0-0.7-0.1-1.6,0.9-1.5
			c1,0,0.9,0.9,0.9,1.6C295.6,89.2,295.5,90.4,295.5,91.6C295.5,91.6,295.5,91.6,295.5,91.6z"/>
		<path class="st8" d="M117.2,0.3c-0.3,1.6,0.3,3.1,1,4.5c2.7,5.7,5.5,11.4,8.2,17c0.1,0.2,0.1,0.5,0.2,1.3
			c-1.8-2.2-2.7-4.3-3.8-6.3c-2.3-4.1-4.5-8.2-6.7-12.3C115,2.4,115.4,1.3,117.2,0.3L117.2,0.3z"/>
		<path class="st8" d="M26.7,36.7c1.1-6.4,2.3-12.9,3.4-19.3c0.3-1.6,0.6-3.2-1-4.6c2.6,0.7,3.4,2,2.9,4.5c-0.4,1.7-0.8,3.4-1.2,5.2
			c-1.2,4.8-2.3,9.6-3.5,14.4C27,36.7,26.9,36.7,26.7,36.7z"/>
		<path class="st8" d="M189.8,96.3c0.8-2.4,1.4-4.2,2-6c0.2-0.6,0.4-1.2,1.2-0.9c0.7,0.3,0.6,0.8,0.4,1.4c-0.8,2.1-1.5,4.2-2.3,6.4
			c-0.2,0.6-0.6,1-1.2,1.1c-0.8,0.1-1.1-0.5-1.4-1.1c-0.8-2-1.5-4.1-2.2-6.2c-0.2-0.6-0.5-1.4,0.4-1.6c0.9-0.2,1,0.6,1.2,1.2
			C188.5,92.3,189,94,189.8,96.3z"/>
		<path class="st8" d="M240.5,93.8c0-0.9,0-1.8,0-2.8c0-1.1-0.1-2.4,1.6-1.1c0.5,0.4,0.9-0.4,1.4-0.5c0.5-0.1,1-0.1,1.2,0.5
			c0.1,0.5,0,0.9-0.5,1c-2.4,0.4-2.1,2.2-2.2,3.9c0,0.8,0,1.7,0,2.5c0,0.5-0.2,0.8-0.8,0.8c-0.5,0-0.8-0.4-0.8-0.8
			C240.5,96.2,240.6,95,240.5,93.8C240.5,93.8,240.5,93.8,240.5,93.8z"/>
		<path class="st8" d="M215.4,93.7c0-0.8-0.1-1.7,0-2.5c0.1-0.9-0.5-2.9,1.7-1.2c0.5,0.4,0.9-0.5,1.4-0.6c0.5-0.1,1,0,1.2,0.6
			c0.1,0.5-0.1,0.9-0.5,1c-2.2,0.3-2.1,1.9-2.1,3.5c0,0.7,0,1.4,0,2.1c0,0.7,0.2,1.6-0.8,1.6c-1,0-0.8-1-0.8-1.7
			C215.4,95.6,215.4,94.6,215.4,93.7z"/>
		<path class="st8" d="M119.3,16.5c-2.6-3.2-4.6-6.7-6.5-10.3c-0.7-1.3-0.4-2.8,1.4-3.4l0,0c-0.3,1.7,0.4,3.1,1,4.6
			C116.6,10.5,118.5,13.2,119.3,16.5L119.3,16.5z"/>
		<path class="st8" d="M222.1,93.8c0,1.1,0,2.3,0,3.4c0,0.5-0.1,1-0.8,1c-0.5,0-0.7-0.4-0.8-0.9c0-2.3,0-4.7,0-7
			c0-0.4,0.2-0.9,0.7-0.9c0.6,0,0.8,0.4,0.8,1C222.1,91.5,222.1,92.7,222.1,93.8z"/>
		<path class="st8" d="M269.8,93.3c-1.1-0.5-2.9,0.6-3-0.9c-0.1-1.8,1.9-1,2.8-0.9c1,0.1,3.1-1.1,3,0.9
			C272.7,94.1,270.7,92.5,269.8,93.3z"/>
		<path class="st8" d="M222.2,87.1c-0.1,0.5-0.3,0.9-0.9,0.9c-0.5,0-0.8-0.5-0.8-1c0-0.5,0.4-0.7,0.8-0.8
			C221.8,86.2,222.2,86.5,222.2,87.1z"/>
		<path class="st8" d="M119.4,16.4c0.4,0.2,0.7,0.5,0.6,1c0,0-0.3,0.1-0.3,0.1C119.5,17.1,119.4,16.8,119.4,16.4
			C119.3,16.5,119.4,16.4,119.4,16.4z"/>
		<path class="st8" d="M127.9,25.4c0.1,0.2,0.2,0.3,0.3,0.5C127.7,26,128,25.5,127.9,25.4L127.9,25.4z"/>
		<path class="st8" d="M33.3,14.7c-0.2-0.1-0.4-0.1-0.5-0.2c0,0,0.1-0.1,0.1-0.1C33,14.5,33.1,14.7,33.3,14.7
			C33.3,14.8,33.3,14.7,33.3,14.7z"/>
		<path class="st8" d="M127.9,25.4c-0.1-0.1-0.1-0.1-0.2-0.2c0,0,0.1,0,0.1,0C127.8,25.3,127.8,25.4,127.9,25.4
			C127.9,25.4,127.9,25.4,127.9,25.4z"/>
		<polygon class="st8" points="127.2,24.2 127.3,24.4 127.2,24.4 		"/>
		<polygon class="st8" points="126.9,23.5 126.8,23.5 126.8,23.4 		"/>
		<path class="st8" d="M114.2,2.8c0.1-0.1,0.1-0.1,0.2-0.2c0,0,0,0.1,0,0.1C114.4,2.8,114.3,2.8,114.2,2.8
			C114.2,2.8,114.2,2.8,114.2,2.8z"/>
		<path class="st8" d="M117.2,0.3c0.1-0.1,0.1-0.1,0.2-0.2c0,0,0,0.1,0,0.1C117.3,0.2,117.3,0.2,117.2,0.3
			C117.2,0.3,117.2,0.3,117.2,0.3z"/>
		<path class="st8" d="M220,37.3c-4.1,0-8.2,0-12.3,0c-3.6,0-4.9,1.3-4.9,4.8c0,5.2,0,10.5,0,15.7c0,5.4,0,10.8,0,16.2
			c0,2.9,1.5,4.5,3.9,4.6c2.5,0,4.1-1.7,4.1-4.6c0-2.7,0.1-5.4,0-8.1c-0.1-1.7,0.3-2.4,2.1-2.2c2.4,0.2,4.8,0.1,7.2,0
			c7.5-0.1,13.3-6,13.2-13.3C233.3,43.2,227.5,37.4,220,37.3z M219.7,56.9c-2.5,0.1-5.1,0-7.7,0.1c-1.1,0-1.3-0.4-1.3-1.4
			c0.1-1.7,0-3.4,0-5.1c0-0.8,0-1.6,0-2.4c0-0.8,0-1.6,0-2.4c0-1,0.2-1.5,1.4-1.5c2.5,0.1,5,0,7.4,0.1c3.5,0.1,6.2,3,6.2,6.3
			C225.8,53.8,223.1,56.7,219.7,56.9z"/>
		<path class="st8" d="M199.3,72.8c-2.3-6.5-4.6-12.9-6.8-19.4c-1.4-3.9-2.7-7.7-4.1-11.6c-0.9-2.4-2.5-4.3-5.3-4.5
			c-3.2,0.1-4.8,2.1-5.7,4.7c-3.7,10.3-7.4,20.6-11,31c-0.9,2.5,0.2,4.9,2.4,5.5c2.3,0.7,4.4-0.6,5.2-3.1c0.9-2.7,1.7-5.4,2.4-8.1
			c0.3-0.9,0.6-1.4,1.7-1.4c3.2,0.1,6.4,0.1,9.6,0c1.1,0,1.4,0.4,1.7,1.4c0.7,2.7,1.6,5.4,2.4,8.1c0.3,1.1,0.9,2.1,1.9,2.7
			c1.6,0.9,3.2,0.9,4.6-0.3C199.9,76.4,200,74.6,199.3,72.8z M178.6,59.7c1.4-4.6,2.7-9.1,4-13.6c0.1,0,0.3,0,0.4,0
			c1.3,4.5,2.6,8.9,4,13.6C184.2,59.7,181.5,59.7,178.6,59.7z"/>
		<path class="st8" d="M262.9,72.9c-0.6-1.9-1.4-3.9-2-5.8c-3-8.4-5.9-16.8-8.9-25.2c-0.9-2.5-2.4-4.6-5.5-4.6
			c-3.1-0.1-4.5,2.1-5.5,4.5c-0.9,2.2-1.6,4.5-2.4,6.8c-2.8,8-5.7,16-8.5,24c-1,2.8-0.1,5,2.1,5.8c2.4,0.8,4.5-0.5,5.4-3.3
			c0.4-1.1,0.7-2.3,1.1-3.4c0.6-1.9,0.7-4.3,1.9-5.5c1.3-1.2,3.8-0.2,5.4-0.4c2,0,3.6,0,5.2,0c0.9,0,1.4,0.3,1.6,1.2
			c0.7,2.7,1.6,5.4,2.4,8.1c0.8,2.7,3,4,5.3,3.3C262.7,77.8,263.7,75.5,262.9,72.9z M242.1,59.7c1.4-4.6,2.7-9.1,4.1-13.7
			c0.1,0,0.3,0,0.4,0c1.3,4.5,2.6,9,4,13.6C247.7,59.7,245.1,59.7,242.1,59.7z"/>
		<path class="st8" d="M72.3,10.9c5-2.4,10.3-1.4,13.5,2.5c2.8,3.4,3.3,8,1,11.1c1.2-4.4,0.3-8.2-3-11.2
			C80.6,10.3,76.6,9.9,72.3,10.9z"/>
		<path class="st8" d="M286.1,92.5c1.3-1,2.4-2,1.7-3.9c-0.7-1.9-2.2-2.4-4.1-2.3c-1.3,0.1-2.6,0.1-3.8,0c-1.2-0.1-1.7,0.5-1.7,1.6
			c0,3,0,6,0,8.9c0,0.7,0.1,1.4,1,1.3c0.7,0,0.8-0.6,0.8-1.3c0-0.9,0.1-1.7,0-2.6c-0.1-1.1,0.3-1.3,1.3-1.3c3.8-0.1,3.8-0.1,4.4,3.6
			c0,0.3,0.1,0.6,0.2,0.8c0.1,0.5,0.4,0.7,0.9,0.7c0.5,0,0.9-0.4,0.8-0.8C287.3,95.7,287.9,93.8,286.1,92.5z M284.1,91.4
			c-0.5,0-1,0-1.6,0c-0.6-0.6-2.4,1.2-2.5-1.2c-0.1-1.8,0.3-2.6,2.2-2.3c0.6,0.1,1.3,0,1.9,0c1.1,0,2,0.5,2,1.7
			C286.1,90.9,285.3,91.4,284.1,91.4z"/>
		<path class="st8" d="M253,90.5c0-0.6-0.3-1.5-0.8-1.1c-1.2,0.9-2,0-3-0.1c-2-0.2-3.8,1.1-4.1,3.1c-0.2,1.8-0.4,3.8,1.3,5.1
			c1.6,1.2,3.3,0.9,4.9-0.2c0,2.8-1.7,3.6-4.2,2c-0.4-0.3-0.8-0.7-1.3-0.2c-0.4,0.5,0,1,0.3,1.3c1.3,1.1,2.8,1.2,4.4,0.7
			c1.4-0.4,2.4-1.4,2.5-2.9C253.1,95.8,253,93.1,253,90.5z M249.3,96.6c-2.1,0-2.8-1.1-2.8-2.7c0-1.6,0.6-2.8,2.5-2.8
			c1.8,0,2.5,1,2.6,2.7C251.5,95.4,250.7,96.4,249.3,96.6z"/>
		<path class="st8" d="M230,90.6c-1.4-1.7-3.2-1.5-5-0.6c-0.4-0.9-0.2-1.8-0.3-2.6c0-0.5-0.2-1-0.8-1c-0.6,0-0.8,0.5-0.8,1
			c0,3.3,0,6.5,0,9.8c0,0.8,0.4,1.5,1.3,0.8c0.7-0.5,1,0,1.5,0.1c2.1,0.6,3.7-0.1,4.5-2.1C231.4,94.1,231.3,92.2,230,90.6z
			 M227.1,96.5c-1.7,0-2.2-1.2-2.4-2.5c0-1.8,1.1-3.1,2.5-3c1.6,0.1,2.3,1.2,2.4,2.7C229.5,95.3,228.8,96.5,227.1,96.5z"/>
		<path class="st8" d="M258.2,89.3c-2.5,0-4.2,1.7-4.2,4.3c-0.1,2.8,1.5,4.6,4.1,4.7c2.5,0.1,4.3-1.7,4.4-4.4
			C262.4,91.2,260.7,89.3,258.2,89.3z M258.3,96.6c-1.7,0.1-2.8-1-2.8-2.7c0-1.8,1-2.8,2.7-2.8c1.8,0,2.4,1.1,2.6,2.7
			C260.7,95.3,260.1,96.5,258.3,96.6z"/>
		<path class="st8" d="M181.3,89.3c-2.6,0.1-4.1,1.9-4.1,4.6c0.1,2.6,1.7,4.3,4.2,4.3c2.5,0,4.3-1.9,4.2-4.5
			C185.6,91.1,183.9,89.3,181.3,89.3z M181.4,96.5c-1.7,0-2.6-1-2.6-2.6c-0.1-1.8,0.9-2.9,3-2.9c1.3,0,2.1,1,2.2,2.6
			C184.1,95.4,183.1,96.6,181.4,96.5z"/>
	</g>
</g>
</svg>
